# xmcd
#
# Track frame offsets:
#	150
#	12746
#	28118
#	42290
#	50637
#	62059
#	73308
#	90630
#	103902
#	114548
#	125345
#	140917
#	153189
#	167110
#	184481
#
# Disc length: 2631 seconds
#
# Revision: 0
# Processed by: cddbd v1.5.2PL0 Copyright (c) Steve Scherf et al.
# Submitted via: EZCDAudioConverter 2.0.4.1
#
DISCID=e40a450f
DTITLE=Jan Howard - Through The Years CD 4
DYEAR=1900
DGENRE=
TTITLE0=My Son
TTITLE1=I Am
TTITLE2=Where No One Stands Alone
TTITLE3=God Bless America
TTITLE4=God Bless America Again
TTITLE5=Twenty-Third Psalm
TTITLE6=How Great Thou Art
TTITLE7=Old Rugged Cross
TTITLE8=I Believe
TTITLE9=Night Watch
TTITLE10=Pledge Of Allegiance
TTITLE11=Lord's Prayer
TTITLE12=Take My Hand Precious Lord
TTITLE13=Nearer My God To Thee
TTITLE14=Beyond The Sunset
EXTD=
EXTT0=
EXTT1=
EXTT2=
EXTT3=
EXTT4=
EXTT5=
EXTT6=
EXTT7=
EXTT8=
EXTT9=
EXTT10=
EXTT11=
EXTT12=
EXTT13=
EXTT14=
PLAYORDER=
